<mxfile host="app.diagrams.net" modified="2023-05-05T11:29:36.259Z" agent="Mozilla/5.0 (Windows NT 10.0; Win64; x64) AppleWebKit/537.36 (KHTML, like Gecko) Chrome/112.0.0.0 Safari/537.36" etag="ZfGVmOGFk_2DYOYSefEM" version="21.2.9" type="device">
  <diagram name="PÃ¡gina-1" id="jW96Wjf2EUonoVyGlNu8">
    <mxGraphModel dx="765" dy="386" grid="1" gridSize="10" guides="1" tooltips="1" connect="1" arrows="1" fold="1" page="1" pageScale="1" pageWidth="827" pageHeight="1169" math="0" shadow="0">
      <root>
        <mxCell id="0" />
        <mxCell id="1" parent="0" />
        <mxCell id="_9L76FKAAD5AYygAIql4-23" style="edgeStyle=orthogonalEdgeStyle;rounded=0;orthogonalLoop=1;jettySize=auto;html=1;exitX=0.5;exitY=1;exitDx=0;exitDy=0;" edge="1" parent="1" source="_9L76FKAAD5AYygAIql4-1" target="_9L76FKAAD5AYygAIql4-5">
          <mxGeometry relative="1" as="geometry" />
        </mxCell>
        <mxCell id="_9L76FKAAD5AYygAIql4-1" value="Inicio" style="ellipse;whiteSpace=wrap;html=1;aspect=fixed;" vertex="1" parent="1">
          <mxGeometry x="374" y="120" width="80" height="80" as="geometry" />
        </mxCell>
        <mxCell id="_9L76FKAAD5AYygAIql4-17" style="edgeStyle=orthogonalEdgeStyle;rounded=0;orthogonalLoop=1;jettySize=auto;html=1;exitX=0.5;exitY=1;exitDx=0;exitDy=0;entryX=0.5;entryY=0;entryDx=0;entryDy=0;" edge="1" parent="1">
          <mxGeometry relative="1" as="geometry">
            <mxPoint x="413.5" y="320" as="sourcePoint" />
            <mxPoint x="413.5" y="330" as="targetPoint" />
          </mxGeometry>
        </mxCell>
        <mxCell id="_9L76FKAAD5AYygAIql4-20" style="edgeStyle=orthogonalEdgeStyle;rounded=0;orthogonalLoop=1;jettySize=auto;html=1;exitX=0.5;exitY=1;exitDx=0;exitDy=0;entryX=0.5;entryY=0;entryDx=0;entryDy=0;" edge="1" parent="1" source="_9L76FKAAD5AYygAIql4-5" target="_9L76FKAAD5AYygAIql4-9">
          <mxGeometry relative="1" as="geometry" />
        </mxCell>
        <mxCell id="_9L76FKAAD5AYygAIql4-5" value="Ingrsa Los #s" style="rounded=1;whiteSpace=wrap;html=1;" vertex="1" parent="1">
          <mxGeometry x="354" y="220" width="120" height="60" as="geometry" />
        </mxCell>
        <mxCell id="_9L76FKAAD5AYygAIql4-29" style="edgeStyle=orthogonalEdgeStyle;rounded=0;orthogonalLoop=1;jettySize=auto;html=1;exitX=0.5;exitY=1;exitDx=0;exitDy=0;" edge="1" parent="1" source="_9L76FKAAD5AYygAIql4-6" target="_9L76FKAAD5AYygAIql4-7">
          <mxGeometry relative="1" as="geometry" />
        </mxCell>
        <mxCell id="_9L76FKAAD5AYygAIql4-6" value="suma -- Num+N&lt;br&gt;Resta -- Num1-N1&lt;br&gt;Mut -- Num1*N" style="shape=parallelogram;perimeter=parallelogramPerimeter;whiteSpace=wrap;html=1;fixedSize=1;" vertex="1" parent="1">
          <mxGeometry x="340" y="370" width="150" height="60" as="geometry" />
        </mxCell>
        <mxCell id="_9L76FKAAD5AYygAIql4-30" style="edgeStyle=orthogonalEdgeStyle;rounded=0;orthogonalLoop=1;jettySize=auto;html=1;exitX=0.5;exitY=1;exitDx=0;exitDy=0;entryX=0.508;entryY=0.102;entryDx=0;entryDy=0;entryPerimeter=0;" edge="1" parent="1" source="_9L76FKAAD5AYygAIql4-7" target="_9L76FKAAD5AYygAIql4-10">
          <mxGeometry relative="1" as="geometry" />
        </mxCell>
        <mxCell id="_9L76FKAAD5AYygAIql4-7" value="Div -- Num1/N" style="rounded=1;whiteSpace=wrap;html=1;" vertex="1" parent="1">
          <mxGeometry x="354" y="460" width="120" height="30" as="geometry" />
        </mxCell>
        <mxCell id="_9L76FKAAD5AYygAIql4-28" style="edgeStyle=orthogonalEdgeStyle;rounded=0;orthogonalLoop=1;jettySize=auto;html=1;exitX=0.5;exitY=1;exitDx=0;exitDy=0;entryX=0.5;entryY=0;entryDx=0;entryDy=0;" edge="1" parent="1" source="_9L76FKAAD5AYygAIql4-9" target="_9L76FKAAD5AYygAIql4-6">
          <mxGeometry relative="1" as="geometry" />
        </mxCell>
        <mxCell id="_9L76FKAAD5AYygAIql4-9" value="Num1.Num2" style="shape=hexagon;perimeter=hexagonPerimeter2;whiteSpace=wrap;html=1;fixedSize=1;" vertex="1" parent="1">
          <mxGeometry x="354" y="310" width="120" height="40" as="geometry" />
        </mxCell>
        <mxCell id="_9L76FKAAD5AYygAIql4-34" style="edgeStyle=orthogonalEdgeStyle;rounded=0;orthogonalLoop=1;jettySize=auto;html=1;exitX=0.55;exitY=0.95;exitDx=0;exitDy=0;exitPerimeter=0;entryX=0.625;entryY=0.2;entryDx=0;entryDy=0;entryPerimeter=0;" edge="1" parent="1" source="_9L76FKAAD5AYygAIql4-10" target="_9L76FKAAD5AYygAIql4-11">
          <mxGeometry relative="1" as="geometry" />
        </mxCell>
        <mxCell id="_9L76FKAAD5AYygAIql4-10" value="La Suma De los Numeros es:" style="ellipse;shape=cloud;whiteSpace=wrap;html=1;" vertex="1" parent="1">
          <mxGeometry x="355" y="508.5" width="120" height="76" as="geometry" />
        </mxCell>
        <mxCell id="_9L76FKAAD5AYygAIql4-32" style="edgeStyle=orthogonalEdgeStyle;rounded=0;orthogonalLoop=1;jettySize=auto;html=1;exitX=0.55;exitY=0.95;exitDx=0;exitDy=0;exitPerimeter=0;entryX=0.532;entryY=0.072;entryDx=0;entryDy=0;entryPerimeter=0;" edge="1" parent="1" source="_9L76FKAAD5AYygAIql4-11" target="_9L76FKAAD5AYygAIql4-12">
          <mxGeometry relative="1" as="geometry" />
        </mxCell>
        <mxCell id="_9L76FKAAD5AYygAIql4-11" value="La Resta De los Numeros es:" style="ellipse;shape=cloud;whiteSpace=wrap;html=1;" vertex="1" parent="1">
          <mxGeometry x="354" y="600" width="120" height="80" as="geometry" />
        </mxCell>
        <mxCell id="_9L76FKAAD5AYygAIql4-35" style="edgeStyle=orthogonalEdgeStyle;rounded=0;orthogonalLoop=1;jettySize=auto;html=1;exitX=0.55;exitY=0.95;exitDx=0;exitDy=0;exitPerimeter=0;entryX=0.618;entryY=0.125;entryDx=0;entryDy=0;entryPerimeter=0;" edge="1" parent="1" source="_9L76FKAAD5AYygAIql4-12" target="_9L76FKAAD5AYygAIql4-13">
          <mxGeometry relative="1" as="geometry" />
        </mxCell>
        <mxCell id="_9L76FKAAD5AYygAIql4-12" value="La multiplicacion De los Numeros es:" style="ellipse;shape=cloud;whiteSpace=wrap;html=1;" vertex="1" parent="1">
          <mxGeometry x="332.5" y="690" width="165" height="80" as="geometry" />
        </mxCell>
        <mxCell id="_9L76FKAAD5AYygAIql4-14" value="Fin" style="shape=cylinder3;whiteSpace=wrap;html=1;boundedLbl=1;backgroundOutline=1;size=15;" vertex="1" parent="1">
          <mxGeometry x="385" y="880" width="60" height="80" as="geometry" />
        </mxCell>
        <mxCell id="_9L76FKAAD5AYygAIql4-36" style="edgeStyle=orthogonalEdgeStyle;rounded=0;orthogonalLoop=1;jettySize=auto;html=1;exitX=0.55;exitY=0.95;exitDx=0;exitDy=0;exitPerimeter=0;entryX=0.5;entryY=0;entryDx=0;entryDy=0;entryPerimeter=0;" edge="1" parent="1" source="_9L76FKAAD5AYygAIql4-13" target="_9L76FKAAD5AYygAIql4-14">
          <mxGeometry relative="1" as="geometry" />
        </mxCell>
        <mxCell id="_9L76FKAAD5AYygAIql4-13" value="La Divicion De los &lt;br&gt;Numeros es:" style="ellipse;shape=cloud;whiteSpace=wrap;html=1;" vertex="1" parent="1">
          <mxGeometry x="342" y="780" width="142.5" height="80" as="geometry" />
        </mxCell>
      </root>
    </mxGraphModel>
  </diagram>
</mxfile>
